<svg width="33" height="38" viewBox="0 0 33 38" fill="none" xmlns="http://www.w3.org/2000/svg">
<path d="M4.69571 0C4.36701 0 4.08527 0.0469571 3.80353 0.140871C1.9722 0.516529 0.516529 1.9722 0.140871 3.80353C0 4.08527 0 4.36701 0 4.69571V30.5221C0 34.4196 3.14613 37.5657 7.04357 37.5657H32.87V32.87H7.04357C5.72877 32.87 4.69571 31.8369 4.69571 30.5221C4.69571 29.2073 5.72877 28.1743 7.04357 28.1743H32.87V2.34786C32.87 1.03306 31.8369 0 30.5221 0H28.1743V14.0871L23.4786 9.39143L18.7829 14.0871V0H4.69571Z" fill="black"/>
</svg>
