<svg width="15" height="49" viewBox="0 0 15 49" fill="none" xmlns="http://www.w3.org/2000/svg">
<path d="M7.06835 17.2782C10.9756 17.2782 14.1367 20.4393 14.1367 24.3465C14.1367 28.2538 10.9756 31.4149 7.06835 31.4149C3.16112 31.4149 0 28.2538 0 24.3465C0 20.4393 3.16112 17.2782 7.06835 17.2782ZM0 7.06835C0 10.9756 3.16112 14.1367 7.06835 14.1367C10.9756 14.1367 14.1367 10.9756 14.1367 7.06835C14.1367 3.16112 10.9756 0 7.06835 0C3.16112 0 0 3.16112 0 7.06835ZM0 41.6247C0 45.532 3.16112 48.6931 7.06835 48.6931C10.9756 48.6931 14.1367 45.532 14.1367 41.6247C14.1367 37.7175 10.9756 34.5564 7.06835 34.5564C3.16112 34.5564 0 37.7175 0 41.6247Z" fill="black"/>
</svg>
