<svg width="37" height="24" viewBox="0 0 37 24" fill="none" xmlns="http://www.w3.org/2000/svg">
<path d="M2 3.78376C2 2.87622 2.73572 2.1405 3.64325 2.1405H33.2218C34.1294 2.1405 34.8651 2.87622 34.8651 3.78376V20.2163C34.8651 21.1239 34.1294 21.8596 33.2218 21.8596H3.64325C2.73572 21.8596 2 21.1239 2 20.2163V3.78376Z" stroke="black" stroke-width="3.28651" stroke-linecap="round" stroke-linejoin="round"/>
<path d="M18.4325 15.2865C20.2476 15.2865 21.719 13.8151 21.719 12C21.719 10.1849 20.2476 8.7135 18.4325 8.7135C16.6174 8.7135 15.146 10.1849 15.146 12C15.146 13.8151 16.6174 15.2865 18.4325 15.2865Z" stroke="black" stroke-width="3.28651" stroke-linecap="round" stroke-linejoin="round"/>
<path d="M8.59971 12.0265L8.57324 12" stroke="black" stroke-width="3.28651" stroke-linecap="round" stroke-linejoin="round"/>
<path d="M28.3184 12.0265L28.292 12" stroke="black" stroke-width="3.28651" stroke-linecap="round" stroke-linejoin="round"/>
</svg>
