<svg width="33" height="33" viewBox="0 0 33 33" fill="none" xmlns="http://www.w3.org/2000/svg">
<path d="M16.4351 4.10877C18.873 4.10877 21.2561 4.83169 23.2832 6.18612C25.3102 7.54054 26.8901 9.46564 27.823 11.718C28.756 13.9703 29.0001 16.4487 28.5245 18.8398C28.0488 21.2308 26.8749 23.4271 25.151 25.151C23.4272 26.8749 21.2308 28.0488 18.8398 28.5244C16.4487 29 13.9703 28.7559 11.718 27.823C9.46567 26.89 7.54058 25.3102 6.18615 23.2831C4.83172 21.2561 4.1088 18.8729 4.1088 16.435C4.12678 13.1714 5.43121 10.0466 7.73895 7.73891C10.0467 5.43118 13.1715 4.12675 16.4351 4.10877ZM16.4351 1.3696C13.4554 1.3696 10.5427 2.25317 8.06516 3.90858C5.58766 5.56399 3.65669 7.91689 2.51642 10.6697C1.37616 13.4226 1.07781 16.4517 1.65911 19.3741C2.24042 22.2965 3.67526 24.9809 5.78219 27.0879C7.88913 29.1948 10.5735 30.6297 13.4959 31.211C16.4183 31.7923 19.4475 31.4939 22.2003 30.3536C24.9532 29.2134 27.3061 27.2824 28.9615 24.8049C30.6169 22.3274 31.5005 19.4147 31.5005 16.435C31.5095 14.4541 31.126 12.4909 30.3722 10.659C29.6183 8.82711 28.5089 7.16271 27.1081 5.76195C25.7074 4.36118 24.043 3.25182 22.211 2.49792C20.3791 1.74403 18.416 1.36054 16.4351 1.3696Z" fill="black"/>
<path d="M22.8034 9.10773L13.6957 13.6958L9.10761 22.8036C9.06119 22.9372 9.05335 23.0813 9.085 23.2192C9.11665 23.3571 9.1865 23.4833 9.28655 23.5833C9.3866 23.6834 9.5128 23.7532 9.65071 23.7849C9.78862 23.8165 9.93266 23.8087 10.0663 23.7623L19.174 19.1742L23.7622 10.0664C23.8086 9.93278 23.8164 9.78875 23.7848 9.65084C23.7531 9.51293 23.6833 9.38672 23.5832 9.28667C23.4832 9.18662 23.357 9.11677 23.219 9.08512C23.0811 9.05348 22.9371 9.06131 22.8034 9.10773ZM16.4349 17.8046C16.164 17.8046 15.8992 17.7243 15.674 17.5738C15.4488 17.4233 15.2732 17.2094 15.1696 16.9591C15.0659 16.7089 15.0388 16.4335 15.0916 16.1678C15.1445 15.9021 15.2749 15.6581 15.4664 15.4666C15.658 15.275 15.902 15.1446 16.1677 15.0917C16.4334 15.0389 16.7087 15.066 16.959 15.1697C17.2093 15.2733 17.4232 15.4489 17.5736 15.6741C17.7241 15.8993 17.8045 16.1641 17.8045 16.435C17.8045 16.7982 17.6602 17.1466 17.4033 17.4034C17.1465 17.6603 16.7981 17.8046 16.4349 17.8046Z" fill="black"/>
</svg>
