<svg width="37" height="36" viewBox="0 0 37 36" fill="none" xmlns="http://www.w3.org/2000/svg">
<path d="M31.5831 15.148C31.5831 7.88656 25.6966 2 18.4351 2C11.1737 2 5.28711 7.88656 5.28711 15.148" stroke="black" stroke-width="3.77942" stroke-linecap="round" stroke-linejoin="round"/>
<path d="M2 22.4425V19.358C2 17.8496 3.02651 16.535 4.48979 16.1691L7.34874 15.4544C7.97111 15.2987 8.574 15.7694 8.574 16.411V25.3895C8.574 26.0311 7.97111 26.5018 7.34874 26.3462L4.48979 25.6314C3.02651 25.2656 2 23.9509 2 22.4425Z" stroke="black" stroke-width="3.77942"/>
<path d="M34.8699 22.4425V19.358C34.8699 17.8496 33.8434 16.535 32.3802 16.1691L29.5211 15.4544C28.8987 15.2987 28.2959 15.7694 28.2959 16.411V25.3895C28.2959 26.0311 28.8987 26.5018 29.5211 26.3462L32.3802 25.6314C33.8434 25.2656 34.8699 23.9509 34.8699 22.4425Z" stroke="black" stroke-width="3.77942"/>
<path d="M31.5832 26.6525V27.4742C31.5832 29.2897 30.1116 30.7612 28.2962 30.7612H22.5439" stroke="black" stroke-width="3.77942"/>
<path d="M20.9006 33.2265H15.9701C14.6086 33.2265 13.5049 32.1227 13.5049 30.7613C13.5049 29.3998 14.6086 28.296 15.9701 28.296H20.9006C22.2621 28.296 23.3659 29.3998 23.3659 30.7613C23.3659 32.1227 22.2621 33.2265 20.9006 33.2265Z" stroke="black" stroke-width="3.77942"/>
</svg>
