<svg width="68" height="68" viewBox="0 0 68 68" fill="none" xmlns="http://www.w3.org/2000/svg">
<path d="M37.0226 47.133H16.8285C15.9358 47.133 15.0798 47.4876 14.4486 48.1188C13.8174 48.75 13.4628 49.6061 13.4628 50.4987C13.4628 51.3913 13.8174 52.2474 14.4486 52.8786C15.0798 53.5098 15.9358 53.8644 16.8285 53.8644H37.0226C37.9152 53.8644 38.7713 53.5098 39.4025 52.8786C40.0337 52.2474 40.3883 51.3913 40.3883 50.4987C40.3883 49.6061 40.0337 48.75 39.4025 48.1188C38.7713 47.4876 37.9152 47.133 37.0226 47.133ZM23.5598 26.9389H30.2912C31.1838 26.9389 32.0399 26.5843 32.6711 25.9531C33.3023 25.3219 33.6569 24.4658 33.6569 23.5732C33.6569 22.6806 33.3023 21.8245 32.6711 21.1933C32.0399 20.5621 31.1838 20.2075 30.2912 20.2075H23.5598C22.6672 20.2075 21.8111 20.5621 21.1799 21.1933C20.5487 21.8245 20.1942 22.6806 20.1942 23.5732C20.1942 24.4658 20.5487 25.3219 21.1799 25.9531C21.8111 26.5843 22.6672 26.9389 23.5598 26.9389ZM63.9481 33.6703H53.851V3.37906C53.8534 2.786 53.699 2.20284 53.4035 1.68863C53.1079 1.17443 52.6818 0.747448 52.1682 0.450917C51.6565 0.155516 51.0761 0 50.4853 0C49.8945 0 49.3141 0.155516 48.8025 0.450917L38.7054 6.2399L28.6084 0.450917C28.0967 0.155516 27.5163 0 26.9255 0C26.3347 0 25.7543 0.155516 25.2427 0.450917L15.1456 6.2399L5.04856 0.450917C4.53691 0.155516 3.95652 0 3.36571 0C2.77491 0 2.19452 0.155516 1.68287 0.450917C1.16925 0.747448 0.743108 1.17443 0.44759 1.68863C0.152071 2.20284 -0.00232799 2.786 2.65313e-05 3.37906V57.2301C2.65313e-05 59.908 1.06382 62.4762 2.95739 64.3698C4.85095 66.2633 7.41918 67.3271 10.0971 67.3271H57.2167C59.8946 67.3271 62.4628 66.2633 64.3564 64.3698C66.25 62.4762 67.3138 59.908 67.3138 57.2301V37.0359C67.3138 36.1433 66.9592 35.2872 66.328 34.656C65.6968 34.0249 64.8407 33.6703 63.9481 33.6703ZM10.0971 60.5958C9.20445 60.5958 8.34838 60.2412 7.71719 59.61C7.086 58.9788 6.7314 58.1227 6.7314 57.2301V9.2017L13.4628 13.0386C13.9822 13.3099 14.5596 13.4516 15.1456 13.4516C15.7317 13.4516 16.309 13.3099 16.8285 13.0386L26.9255 7.2496L37.0226 13.0386C37.542 13.3099 38.1194 13.4516 38.7054 13.4516C39.2915 13.4516 39.8688 13.3099 40.3883 13.0386L47.1196 9.2017V57.2301C47.1287 58.3782 47.3336 59.5165 47.7255 60.5958H10.0971ZM60.5824 57.2301C60.5824 58.1227 60.2278 58.9788 59.5966 59.61C58.9654 60.2412 58.1093 60.5958 57.2167 60.5958C56.3241 60.5958 55.468 60.2412 54.8368 59.61C54.2056 58.9788 53.851 58.1227 53.851 57.2301V40.4016H60.5824V57.2301ZM37.0226 33.6703H16.8285C15.9358 33.6703 15.0798 34.0249 14.4486 34.656C13.8174 35.2872 13.4628 36.1433 13.4628 37.0359C13.4628 37.9286 13.8174 38.7846 14.4486 39.4158C15.0798 40.047 15.9358 40.4016 16.8285 40.4016H37.0226C37.9152 40.4016 38.7713 40.047 39.4025 39.4158C40.0337 38.7846 40.3883 37.9286 40.3883 37.0359C40.3883 36.1433 40.0337 35.2872 39.4025 34.656C38.7713 34.0249 37.9152 33.6703 37.0226 33.6703Z" fill="black"/>
</svg>
