<svg width="33" height="32" viewBox="0 0 33 32" fill="none" xmlns="http://www.w3.org/2000/svg">
<path d="M32.7436 29.0256L26.141 13.0327C26.0191 12.7374 25.8122 12.4849 25.5467 12.3072C25.2811 12.1295 24.9688 12.0347 24.6492 12.0347C24.3297 12.0347 24.0174 12.1295 23.7518 12.3072C23.4862 12.4849 23.2794 12.7374 23.1574 13.0327L16.5549 29.0256C16.4728 29.2217 16.4302 29.4321 16.4297 29.6447C16.4292 29.8573 16.4706 30.068 16.5517 30.2645C16.6329 30.461 16.752 30.6396 16.9023 30.79C17.0527 30.9403 17.2312 31.0595 17.4278 31.1406C17.6243 31.2217 17.8349 31.2633 18.0475 31.2627C18.2601 31.2622 18.4706 31.2197 18.6667 31.1376C18.8628 31.0555 19.0408 30.9355 19.1904 30.7845C19.34 30.6334 19.4583 30.4542 19.5385 30.2573L20.8832 27.0008H28.4153L29.76 30.2573C29.8819 30.5528 30.0888 30.8054 30.3544 30.9832C30.6201 31.1609 30.9325 31.2558 31.2522 31.2558C31.5174 31.2556 31.7785 31.1901 32.0123 31.065C32.2462 30.94 32.4456 30.7592 32.593 30.5387C32.7404 30.3182 32.8312 30.0648 32.8573 29.8009C32.8834 29.537 32.8441 29.2707 32.7429 29.0256H32.7436ZM22.2162 23.7729L24.6496 17.8782L27.083 23.7729H22.2162Z" fill="black"/>
<path d="M17.3016 22.3732C17.5524 22.0268 17.6554 21.5951 17.5882 21.1728C17.5209 20.7506 17.2888 20.3723 16.9429 20.1209C16.9282 20.1099 15.8425 19.3044 14.2659 17.5731C17.1747 13.635 18.8224 9.15483 19.4944 7.04641H21.8618C22.2898 7.04641 22.7004 6.87637 23.003 6.5737C23.3057 6.27102 23.4758 5.86051 23.4758 5.43246C23.4758 5.00441 23.3057 4.59389 23.003 4.29122C22.7004 3.98854 22.2898 3.8185 21.8618 3.8185H13.3518V2.35126C13.3518 1.92321 13.1818 1.5127 12.8791 1.21002C12.5764 0.907346 12.1659 0.737305 11.7379 0.737305C11.3098 0.737305 10.8993 0.907346 10.5966 1.21002C10.294 1.5127 10.1239 1.92321 10.1239 2.35126V3.8185H1.61396C1.18591 3.8185 0.775393 3.98854 0.472717 4.29122C0.170041 4.59389 0 5.00441 0 5.43246C0 5.86051 0.170041 6.27102 0.472717 6.5737C0.775393 6.87637 1.18591 7.04641 1.61396 7.04641H16.0846C15.3862 9.02351 14.1001 12.1451 12.1384 14.9959C9.83414 11.9382 8.97801 9.95961 8.97141 9.94347C8.80271 9.55362 8.48713 9.24599 8.09309 9.0873C7.69906 8.92862 7.25835 8.93167 6.86656 9.0958C6.47476 9.25994 6.16347 9.57191 6.0002 9.96407C5.83693 10.3562 5.83484 10.7969 5.99439 11.1906C6.03694 11.2919 7.0618 13.7018 9.87229 17.3479C9.93978 17.4352 10.0065 17.5203 10.0733 17.6054C7.19459 20.859 4.37016 22.8771 3.1883 23.5286C2.81249 23.7336 2.53351 24.0794 2.41271 24.4901C2.29192 24.9008 2.33921 25.3426 2.54419 25.7184C2.74916 26.0943 3.09503 26.3732 3.50571 26.494C3.91638 26.6148 4.35823 26.5675 4.73403 26.3626C4.89249 26.276 8.29941 24.3899 12.1898 20.0835C13.8419 21.8501 14.9775 22.6835 15.0458 22.7319C15.2174 22.8566 15.412 22.9462 15.6183 22.9956C15.8247 23.045 16.0387 23.0533 16.2482 23.0199C16.4578 22.9865 16.6586 22.9121 16.8394 22.801C17.0201 22.6899 17.1772 22.5443 17.3016 22.3724V22.3732Z" fill="black"/>
</svg>
