<svg width="83" height="65" viewBox="0 0 83 65" fill="none" xmlns="http://www.w3.org/2000/svg">
<path d="M15.0612 64.163V59.8903C15.0612 58.2517 14.064 57.1839 12.4271 57.1839C11.5674 57.1839 10.6475 57.4694 10.0062 58.3875C9.50756 57.6035 8.80261 57.1839 7.72798 57.1839C7.32843 57.1667 6.93083 57.2487 6.57076 57.4228C6.21069 57.5968 5.89938 57.8574 5.66469 58.1812V57.3215H4.31152V64.1578H5.66469V60.2462C5.66469 59.0426 6.37653 58.4666 7.37378 58.4666C8.37104 58.4666 8.94016 59.108 8.94016 60.2462V64.163H10.2933V60.2462C10.2933 59.0426 11.0052 58.4666 12.0024 58.4666C12.9997 58.4666 13.5688 59.108 13.5688 60.2462V64.163H15.0612ZM37.2794 57.3972H34.7862V55.3339H33.4365V57.3972H32.0128V58.6007H33.4365V61.8126C33.4365 63.379 34.0056 64.3057 35.7147 64.3057C36.3622 64.2922 36.9966 64.1211 37.5631 63.8071L37.1349 62.6035C36.7508 62.8436 36.3052 62.9673 35.8523 62.9594C35.1404 62.9594 34.7845 62.5313 34.7845 61.8195V58.5457H37.2776V57.4057L37.2794 57.3972ZM49.9548 57.1839C49.5862 57.1757 49.2219 57.2633 48.8973 57.4381C48.5727 57.6129 48.299 57.869 48.103 58.1812V57.3215H46.7498V64.1578H48.103V60.3184C48.103 59.1785 48.6721 58.4666 49.5989 58.4666C49.9116 58.4793 50.2219 58.5272 50.5239 58.6093L50.9521 57.3267C50.6256 57.2443 50.2913 57.1965 49.9548 57.1839ZM30.7989 57.8958C30.0871 57.3972 29.0899 57.1839 28.0221 57.1839C26.313 57.1839 25.2453 57.968 25.2453 59.3212C25.2453 60.4611 26.0293 61.1007 27.5235 61.3157L28.2353 61.3862C29.0194 61.5289 29.518 61.8143 29.518 62.1702C29.518 62.6688 28.9489 63.0299 27.8794 63.0299C27.0628 63.0467 26.263 62.7968 25.6012 62.3181L24.8893 63.3858C25.8866 64.0977 27.0971 64.2455 27.8123 64.2455C29.8068 64.2455 30.8746 63.3205 30.8746 62.0378C30.8746 60.8342 30.0149 60.2582 28.5242 60.0433L27.8123 59.9728C27.171 59.9023 26.6088 59.6874 26.6088 59.261C26.6088 58.7624 27.1779 58.4013 27.9619 58.4013C28.8216 58.4013 29.671 58.7572 30.0991 58.9704L30.7989 57.8958ZM51.4507 60.7448C51.4507 62.8081 52.8039 64.3057 55.0116 64.3057C56.0088 64.3057 56.7207 64.0925 57.4325 63.5217L56.7207 62.4539C56.2167 62.8621 55.5896 63.0881 54.9411 63.0953C53.7375 63.0953 52.8039 62.1702 52.8039 60.817C52.8039 59.4639 53.7255 58.5457 54.9411 58.5457C55.5896 58.5529 56.2167 58.7789 56.7207 59.1871L57.4325 58.1193C56.7207 57.5502 56.0088 57.3353 55.0116 57.3353C52.8744 57.1925 51.4507 58.6884 51.4507 60.7534V60.7448ZM41.908 57.1839C39.9135 57.1839 38.5603 58.6076 38.5603 60.7448C38.5603 62.882 39.984 64.3057 42.049 64.3057C43.0536 64.3269 44.0346 64.0001 44.8258 63.3807L44.114 62.3834C43.5418 62.8268 42.8431 63.0762 42.1195 63.0953C41.1945 63.0953 40.1972 62.5261 40.0562 61.3157H45.113V60.7465C45.113 58.6093 43.8303 57.1857 41.908 57.1857V57.1839ZM41.8375 58.4666C42.8348 58.4666 43.5466 59.108 43.6171 60.1757H39.9152C40.1284 59.1785 40.7749 58.4666 41.8375 58.4666ZM23.3935 60.7448V57.3267H22.0403V58.1864C21.5417 57.545 20.8367 57.1891 19.8326 57.1891C17.9103 57.1891 16.4849 58.685 16.4849 60.75C16.4849 62.815 17.9086 64.3109 19.8326 64.3109C20.8298 64.3109 21.5417 63.955 22.0403 63.3136V64.1733H23.3935V60.7448ZM17.9103 60.7448C17.9103 59.4622 18.6943 58.4666 20.0475 58.4666C21.3302 58.4666 22.1108 59.4639 22.1108 60.7448C22.1108 62.098 21.2511 63.023 20.0475 63.023C18.6943 63.0935 17.9103 62.0258 17.9103 60.7448ZM70.5378 57.1839C70.1692 57.1757 69.8048 57.2633 69.4802 57.4381C69.1557 57.6129 68.882 57.869 68.686 58.1812V57.3215H67.3328V64.1578H68.6843V60.3184C68.6843 59.1785 69.2534 58.4666 70.1802 58.4666C70.4929 58.4793 70.8032 58.5272 71.1052 58.6093L71.5333 57.3267C71.2068 57.2443 70.8726 57.1965 70.5361 57.1839H70.5378ZM65.2678 60.7448V57.3267H63.9147V58.1864C63.416 57.545 62.7111 57.1891 61.7069 57.1891C59.7846 57.1891 58.3593 58.685 58.3593 60.75C58.3593 62.815 59.7829 64.3109 61.7069 64.3109C62.7042 64.3109 63.416 63.955 63.9147 63.3136V64.1733H65.2678V60.7448ZM59.7846 60.7448C59.7846 59.4622 60.5687 58.4666 61.9219 58.4666C63.2045 58.4666 63.9851 59.4639 63.9851 60.7448C63.9851 62.098 63.1254 63.023 61.9219 63.023C60.5687 63.0935 59.7846 62.0258 59.7846 60.7448ZM79.0127 60.7448V54.6203H77.6596V58.1812C77.1609 57.5399 76.456 57.1839 75.4519 57.1839C73.5296 57.1839 72.1042 58.6798 72.1042 60.7448C72.1042 62.8098 73.5278 64.3057 75.4519 64.3057C76.4491 64.3057 77.1609 63.9498 77.6596 63.3085V64.1682H79.0127V60.7448ZM73.5296 60.7448C73.5296 59.4622 74.3136 58.4666 75.6668 58.4666C76.9495 58.4666 77.7301 59.4639 77.7301 60.7448C77.7301 62.098 76.8704 63.023 75.6668 63.023C74.3119 63.0953 73.5278 62.0275 73.5278 60.7448H73.5296Z" fill="black"/>
<path d="M29.2324 5.48318H53.9437V45.7894H29.2324V5.48318Z" fill="#FF5F00"/>
<path d="M31.7256 25.6363C31.7265 21.7588 32.6045 17.9318 34.294 14.4417C35.9835 10.9517 38.4407 7.88905 41.4815 5.48319C37.6998 2.50985 33.1578 0.660554 28.3747 0.146691C23.5916 -0.367172 18.7605 0.475139 14.4335 2.57734C10.1065 4.67953 6.45829 7.95679 3.90592 12.0345C1.35355 16.1121 0 20.8257 0 25.6363C0 30.4469 1.35355 35.1605 3.90592 39.2382C6.45829 43.3159 10.1065 46.5931 14.4335 48.6953C18.7605 50.7975 23.5916 51.6398 28.3747 51.126C33.1578 50.6121 37.6998 48.7628 41.4815 45.7895C38.4407 43.3836 35.9835 40.321 34.294 36.8309C32.6045 33.3409 31.7265 29.5138 31.7256 25.6363Z" fill="#EB001B"/>
<path d="M83.0001 25.6363C83.0036 30.4434 81.6541 35.1545 79.1059 39.2307C76.5577 43.3068 72.9137 46.5835 68.5908 48.686C64.2678 50.7885 59.4404 51.6318 54.6606 51.1196C49.8809 50.6074 45.3418 48.7602 41.5625 45.7895C44.6041 43.3842 47.0617 40.3217 48.7514 36.8315C50.441 33.3414 51.3187 29.514 51.3187 25.6363C51.3187 21.7587 50.441 17.9313 48.7514 14.4411C47.0617 10.9509 44.6041 7.88843 41.5625 5.48319C45.3418 2.51243 49.8809 0.665293 54.6606 0.153059C59.4404 -0.359176 64.2678 0.48417 68.5908 2.58664C72.9137 4.68911 76.5577 7.96581 79.1059 12.042C81.6541 16.1181 83.0036 20.8292 83.0001 25.6363Z" fill="#F79E1B"/>
</svg>
