<svg width="37" height="35" viewBox="0 0 37 35" fill="none" xmlns="http://www.w3.org/2000/svg">
<path d="M34.87 5.29948V25.1366C34.87 26.7144 33.5881 28.1934 32.0103 28.3906L31.468 28.4565C27.8851 28.9331 22.363 30.7572 19.2074 32.4993C18.7801 32.7459 18.0734 32.7459 17.6297 32.4993L17.5639 32.4666C14.4084 30.741 8.90275 28.9331 5.33635 28.4565L4.85967 28.3906C3.28191 28.1934 2 26.7144 2 25.1366V5.28302C2 3.32726 3.59415 1.84813 5.54991 2.01248C9.00126 2.29187 14.2276 4.03403 17.1531 5.85832L17.5639 6.10477C18.0406 6.40062 18.8294 6.40062 19.3061 6.10477L19.5854 5.92402C20.6209 5.28306 21.9357 4.64208 23.3655 4.06685V10.7724L26.6525 8.58648L29.9395 10.7724V2.19334C30.3832 2.11117 30.8106 2.0618 31.205 2.02893H31.3036C33.2594 1.86458 34.87 3.32728 34.87 5.29948Z" stroke="#292D32" stroke-width="2.90514" stroke-linecap="round" stroke-linejoin="round"/>
<path d="M18.4351 6.64716V31.2997" stroke="#292D32" stroke-width="2.90514" stroke-linecap="round" stroke-linejoin="round"/>
<path d="M29.9397 2.1933V10.7723L26.6527 8.58643L23.3657 10.7723V4.06681C25.5187 3.21219 27.9182 2.522 29.9397 2.1933Z" stroke="#292D32" stroke-width="2.90514" stroke-linecap="round" stroke-linejoin="round"/>
</svg>
