<svg width="140" height="43" viewBox="0 0 140 43" fill="none" xmlns="http://www.w3.org/2000/svg">
<path d="M49.4417 42.3881L56.5203 0.849196H67.8424L60.7586 42.3881H49.4417ZM101.665 1.74465C99.4218 0.903093 95.9067 0 91.5172 0C80.3292 0 72.4489 5.63393 72.3815 13.7085C72.3184 19.6773 78.0078 23.0072 82.3023 24.994C86.7098 27.0306 88.1911 28.3288 88.1699 30.1467C88.1417 32.9313 84.6505 34.2027 81.3958 34.2027C76.8645 34.2027 74.4569 33.5732 70.7385 32.0229L69.279 31.3627L67.6903 40.6615C70.3349 41.8215 75.2248 42.8256 80.3026 42.8778C92.2045 42.8778 99.9309 37.3082 100.019 28.6853C100.061 23.9598 97.0446 20.3642 90.5123 17.3992C86.5549 15.4776 84.1312 14.1953 84.1569 12.2495C84.1569 10.5229 86.2084 8.67657 90.6415 8.67657C94.3434 8.61906 97.026 9.42646 99.1156 10.268L100.13 10.7474L101.665 1.74465ZM130.801 0.848558H122.052C119.342 0.848558 117.313 1.58826 116.123 4.2933L99.3081 42.3607H111.197C111.197 42.3607 113.141 37.2424 113.581 36.1184C114.88 36.1184 126.43 36.1362 128.081 36.1362C128.42 37.5906 129.459 42.3607 129.459 42.3607H139.965L130.801 0.847285V0.848558ZM116.92 27.6719C117.856 25.2785 121.431 16.0598 121.431 16.0598C121.364 16.1704 122.361 13.6548 122.932 12.0952L123.697 15.6766C123.697 15.6766 125.865 25.5922 126.318 27.6712H116.92V27.6719ZM39.83 0.848558L28.7453 29.1763L27.5644 23.4197C25.5006 16.7836 19.0714 9.59388 11.8838 5.99445L22.0196 42.3219L33.999 42.3085L51.824 0.848134L39.83 0.847923" fill="#0E4595"/>
<path d="M18.402 0.847076H0.144716L0 1.71134C14.204 5.14971 23.6022 13.459 27.5044 23.4441L23.5345 4.35526C22.8494 1.72492 20.8615 0.939803 18.4024 0.848135" fill="#F2AE14"/>
</svg>
